# xmcd
#
# Track frame offsets: 
#        150
#        21187
#        40622
#        51098
#        68034
#        96211
#        115221
#        135366
#        158146
#        181518
#        203425
#        232960
#        252751
#        274467
#        297227
#        317363
#        332586
#
# Disc length: 4770 seconds
#
# Revision: 0
# Processed by: cddbd v1.5.2PL0 Copyright (c) Steve Scherf et al.
# Submitted via: ExactAudioCopy v1.3
#
DISCID=db12a011
DTITLE=Various Artist - Akella Presents - vol. 218 - Blues-Relax  CD2
DYEAR=2019
DGENRE=Blues
TTITLE0=Joe Louis Walker - The Gift
TTITLE1=John Verity Band - Please Come Home for Christmas
TTITLE2=Keith  Dunn and The Love Gloves - Deja Vu
TTITLE3=Angel Forrest - She's The One
TTITLE4=Burton Brothers Blues Band - I Almost Lost My Mind
TTITLE5=Mandolin Brothers - Lazy Days
TTITLE6=Biscuit Miller and The Mix - Lonely Road
TTITLE7=Tubesnakes - Tell Me
TTITLE8=Mr Blues - Living the Blues
TTITLE9=Larry Wilson Band - Tuck And Roll Dream
TTITLE10=Rocky Jackson - The Same Thing
TTITLE11=Sunday Wilde - It Hurts Me Too
TTITLE12=Gregg Rolie - Only You
TTITLE13=The Blind Lemon Gators - A Little Death Around the Eyes
TTITLE14=The Mighty Bosscats - Candy Man
TTITLE15=Mike Goudreau - Les Gens Tristes
TTITLE16=Baba Blues - When I'm In There
EXTD=
EXTT0=
EXTT1=
EXTT2=
EXTT3=
EXTT4=
EXTT5=
EXTT6=
EXTT7=
EXTT8=
EXTT9=
EXTT10=
EXTT11=
EXTT12=
EXTT13=
EXTT14=
EXTT15=
EXTT16=
PLAYORDER=
